<svg width="307.34243164062497px" height="122.021240234375px" xmlns="http://www.w3.org/2000/svg" viewBox="96.32878417968752 13.9893798828125 307.34243164062497 122.021240234375" style="background: rgba(0, 0, 0, 0);" preserveAspectRatio="xMidYMid"><defs><filter id="editing-extrusion" x="-100%" y="-100%" width="300%" height="300%"><feFlood result="color1" flood-color="#444"></feFlood><feConvolveMatrix order="8,8" divisor="1" kernelMatrix="1 0 0 0 0 0 0 0 0 1 0 0 0 0 0 0 0 0 1 0 0 0 0 0 0 0 0 1 0 0 0 0 0 0 0 0 1 0 0 0 0 0 0 0 0 1 0 0 0 0 0 0 0 0 1 0 0 0 0 0 0 0 0 1" in="SourceAlpha" result="extrude"></feConvolveMatrix><feComposite in="color1" in2="extrude" result="comp-extrude" operator="in"></feComposite><feOffset dx="4" dy="4" in="comp-extrude" result="offset-extrude"></feOffset><feMerge><feMergeNode in="offset-extrude"></feMergeNode><feMergeNode in="SourceGraphic"></feMergeNode></feMerge></filter></defs><g filter="url(#editing-extrusion)"><g transform="translate(145.81625187397003, 102.27781295776367)"><path d="M6.53 0L-0.83 0L10.75-42.24L24.13-42.24L27.07-18.11L38.98-42.24L50.18-42.24L51.33-10.62L51.33-10.62Q51.58-4.35 54.66-2.43L54.66-2.43L54.66-2.43Q53.95-1.15 51.90 0.06L51.90 0.06L51.90 0.06Q49.86 1.28 47.14 1.28L47.14 1.28L47.14 1.28Q44.42 1.28 42.82 0.51L42.82 0.51L42.82 0.51Q41.22-0.26 40.32-1.54L40.32-1.54L40.32-1.54Q38.72-3.84 38.72-8.26L38.72-8.26L38.72-28.03L26.11 0L18.18 0L13.70-28.74L6.53 0ZM60.19-1.92L60.19-1.92L60.19-1.92Q58.69-3.58 58.02-6.21L58.02-6.21L58.02-6.21Q57.34-8.83 57.34-13.12L57.34-13.12L57.34-13.12Q57.34-17.41 58.82-21.31L58.82-21.31L58.82-21.31Q60.29-25.22 62.98-28.03L62.98-28.03L62.98-28.03Q68.48-33.92 77.57-33.92L77.57-33.92L77.57-33.92Q80.83-33.92 83.20-32.83L83.20-32.83L94.14-33.92L89.41-8.96L89.41-8.96Q89.22-8.19 89.22-6.78L89.22-6.78L89.22-6.78Q89.22-5.38 90.08-4.48L90.08-4.48L90.08-4.48Q90.94-3.58 92.22-3.46L92.22-3.46L92.22-3.46Q91.58-1.28 89.25 0L89.25 0L89.25 0Q86.91 1.28 84.29 1.28L84.29 1.28L84.29 1.28Q81.66 1.28 79.90 0.29L79.90 0.29L79.90 0.29Q78.14-0.70 77.63-2.37L77.63-2.37L77.63-2.37Q76.61-0.77 74.43 0.26L74.43 0.26L74.43 0.26Q72.26 1.28 69.34 1.28L69.34 1.28L69.34 1.28Q66.43 1.28 64.06 0.51L64.06 0.51L64.06 0.51Q61.70-0.26 60.19-1.92ZM73.70-27.90L73.70-27.90L73.70-27.90Q72.96-26.75 72.32-24.80L72.32-24.80L72.32-24.80Q71.68-22.85 70.62-17.63L70.62-17.63L70.62-17.63Q69.57-12.42 69.57-8.70L69.57-8.70L69.57-8.70Q69.57-4.99 70.14-3.90L70.14-3.90L70.14-3.90Q70.72-2.82 71.74-2.82L71.74-2.82L71.74-2.82Q73.79-2.82 75.30-4.77L75.30-4.77L75.30-4.77Q76.80-6.72 77.38-10.18L77.38-10.18L80.77-28.93L80.77-28.93Q79.42-30.08 77.86-30.08L77.86-30.08L77.86-30.08Q76.29-30.08 75.36-29.57L75.36-29.57L75.36-29.57Q74.43-29.06 73.70-27.90ZM127.42-4.38L127.42-4.38L127.42-4.38Q124.74-1.66 121.06-0.19L121.06-0.19L121.06-0.19Q117.38 1.28 113.73 1.28L113.73 1.28L113.73 1.28Q110.08 1.28 108.80 0.64L108.80 0.64L106.82 11.52L93.82 12.80L102.66-32.64L113.09-33.73L112.26-29.31L112.26-29.31Q114.94-33.86 120.51-33.86L120.51-33.86L120.51-33.86Q126.78-33.86 130.11-29.82L130.11-29.82L130.11-29.82Q133.06-26.18 133.06-20.61L133.06-20.61L133.06-20.61Q133.06-15.04 131.58-11.07L131.58-11.07L131.58-11.07Q130.11-7.10 127.42-4.38ZM112.96-22.34L109.57-3.58L109.57-3.58Q110.91-2.43 112.58-2.43L112.58-2.43L112.58-2.43Q114.24-2.43 115.20-3.07L115.20-3.07L115.20-3.07Q116.16-3.71 116.86-4.99L116.86-4.99L116.86-4.99Q118.78-8.45 120.32-18.94L120.32-18.94L120.32-18.94Q120.77-22.02 120.77-25.02L120.77-25.02L120.77-25.02Q120.77-28.03 120.10-28.99L120.10-28.99L120.10-28.99Q119.42-29.95 118.14-29.95L118.14-29.95L118.14-29.95Q114.24-29.95 112.96-22.34L112.96-22.34ZM166.72-4.38L166.72-4.38L166.72-4.38Q164.03-1.66 160.35-0.19L160.35-0.19L160.35-0.19Q156.67 1.28 153.02 1.28L153.02 1.28L153.02 1.28Q149.38 1.28 148.10 0.64L148.10 0.64L146.11 11.52L133.12 12.80L141.95-32.64L152.38-33.73L151.55-29.31L151.55-29.31Q154.24-33.86 159.81-33.86L159.81-33.86L159.81-33.86Q166.08-33.86 169.41-29.82L169.41-29.82L169.41-29.82Q172.35-26.18 172.35-20.61L172.35-20.61L172.35-20.61Q172.35-15.04 170.88-11.07L170.88-11.07L170.88-11.07Q169.41-7.10 166.72-4.38ZM152.26-22.34L148.86-3.58L148.86-3.58Q150.21-2.43 151.87-2.43L151.87-2.43L151.87-2.43Q153.54-2.43 154.50-3.07L154.50-3.07L154.50-3.07Q155.46-3.71 156.16-4.99L156.16-4.99L156.16-4.99Q158.08-8.45 159.62-18.94L159.62-18.94L159.62-18.94Q160.06-22.02 160.06-25.02L160.06-25.02L160.06-25.02Q160.06-28.03 159.39-28.99L159.39-28.99L159.39-28.99Q158.72-29.95 157.44-29.95L157.44-29.95L157.44-29.95Q153.54-29.95 152.26-22.34L152.26-22.34ZM196.22-17.98L196.22-17.98L196.22-17.98Q198.53-22.08 198.53-26.24L198.53-26.24L198.53-26.24Q198.53-28.99 196.54-28.99L196.54-28.99L196.54-28.99Q195.01-28.99 193.41-26.37L193.41-26.37L193.41-26.37Q191.74-23.74 191.23-20.35L191.23-20.35L187.90 0L174.66 1.28L181.18-32.64L191.74-33.92L190.59-27.46L190.59-27.46Q193.73-33.92 200.77-33.92L200.77-33.92L200.77-33.92Q204.48-33.92 206.50-32L206.50-32L206.50-32Q208.51-30.08 208.51-26.14L208.51-26.14L208.51-26.14Q208.51-22.21 205.92-19.71L205.92-19.71L205.92-19.71Q203.33-17.22 198.91-17.22L198.91-17.22L198.91-17.22Q196.99-17.22 196.22-17.98Z" fill="#ccc"></path></g></g><style>text {
  font-size: 64px;
  font-family: Arial Black;
  dominant-baseline: central;
  text-anchor: middle;
}</style></svg>